<?xml version="1.0" standalone="no"?>
<!DOCTYPE svg PUBLIC "-//W3C//DTD SVG 20010904//EN"
 "http://www.w3.org/TR/2001/REC-SVG-20010904/DTD/svg10.dtd">
<svg version="1.0" xmlns="http://www.w3.org/2000/svg"
 width="431.000000pt" height="431.000000pt" viewBox="0 0 431.000000 431.000000"
 preserveAspectRatio="xMidYMid meet">
<metadata>
Created by potrace 1.11, written by Peter Selinger 2001-2013
</metadata>
<g transform="translate(0.000000,431.000000) scale(0.100000,-0.100000)"
fill="#000000" stroke="none">
<path d="M1301 3746 c-40 -41 -51 -59 -51 -84 0 -35 -5 -37 -60 -21 -36 11
-37 11 -88 -42 l-52 -54 0 -334 c0 -285 -2 -332 -14 -328 -8 3 -30 9 -50 12
-32 6 -39 3 -85 -41 -43 -42 -51 -54 -51 -86 l0 -37 -47 14 -48 15 -53 -53
-52 -52 2 -200 3 -200 95 -25 95 -25 3 -101 3 -102 57 -15 c31 -9 76 -21 99
-27 l43 -11 2 -401 3 -402 98 -25 97 -25 0 -100 0 -101 293 -78 c160 -42 296
-77 301 -77 5 0 31 21 57 47 l49 47 0 103 c0 57 -2 103 -4 103 -3 0 -47 12
-98 26 -51 14 -97 26 -103 27 -5 2 -52 14 -102 27 l-93 24 0 401 0 400 -97 26
-98 25 -3 102 -3 101 -42 11 c-23 6 -68 18 -99 27 l-58 16 0 134 0 135 23 -6
c72 -21 73 -20 126 32 42 42 51 57 51 86 l0 34 49 -13 49 -13 51 52 51 52 0
332 c0 237 3 332 11 332 6 0 69 -16 140 -35 71 -19 134 -35 140 -35 5 0 32 21
59 47 l50 48 0 102 c0 57 -2 103 -4 103 -3 0 -98 25 -213 56 -114 31 -247 66
-295 79 l-86 22 -51 -51z"/>
<path d="M2302 3477 l-53 -53 3 -99 3 -99 30 -8 c17 -4 91 -24 165 -44 74 -19
150 -40 168 -45 l32 -11 0 -398 0 -399 43 -11 c23 -7 68 -19 99 -27 l57 -16 3
-100 3 -101 95 -25 95 -26 3 -137 3 -136 -48 14 -47 14 -53 -52 c-43 -42 -53
-59 -53 -85 0 -38 3 -36 -54 -22 l-43 11 -52 -52 -51 -51 0 -335 c0 -315 -1
-335 -17 -330 -10 3 -76 21 -148 41 l-129 35 -54 -53 -53 -52 3 -100 3 -99
296 -79 295 -79 52 52 c42 42 52 58 52 86 0 19 1 34 3 34 1 0 23 -7 48 -14
l46 -14 52 52 51 52 0 332 c0 260 3 332 13 332 6 0 28 -4 47 -10 33 -10 36 -8
87 42 43 42 53 59 53 85 0 38 -3 37 54 22 l44 -11 51 52 51 51 0 199 0 199
-42 11 c-24 6 -69 18 -100 27 l-58 16 0 101 0 101 -100 25 -100 24 0 402 0
402 -47 11 c-27 7 -72 19 -100 27 l-53 15 0 99 0 99 -42 11 c-24 6 -56 15 -73
20 -16 5 -124 34 -240 65 -115 31 -217 58 -225 60 -10 3 -36 -16 -68 -48z"/>
</g>
</svg>
